<svg version="1.1" xmlns="http://www.w3.org/2000/svg" width="512" height="512" viewBox="0 0 512 512">
<g transform="translate(8 51.635344) scale(0.777698773) translate(-327.5 -297.4375)">
<path fill="#fff" stroke="#fff" stroke-width="0.2" stroke-linejoin="round" fill-rule="evenodd" d="M674.50,395.50Q670,397 666.50,400.50Q663,404 658.50,411.00Q654,418 645.50,435.50Q637,453 622.00,488.00Q607,523 627.00,482.00Q647,441 653.00,431.00Q659,421 664.00,415.50Q669,410 671.00,409.00Q673,408 677.50,408.00Q682,408 684.50,409.50Q687,411 690.50,415.00Q694,419 698.50,427.00Q703,435 728.50,493.00Q754,551 772.00,588.00Q790,625 805.50,653.50Q821,682 836.50,706.50Q852,731 864.50,746.50Q877,762 890.00,774.00Q903,786 911.50,791.50Q920,797 930.00,801.50Q940,806 948.00,808.00Q956,810 963.00,810.00Q970,810 955.50,806.50Q941,803 932.50,798.50Q924,794 916.00,788.00Q908,782 898.00,772.00Q888,762 880.50,752.50Q873,743 859.50,722.00Q846,701 829.50,670.50Q813,640 760.00,527.50Q707,415 701.00,407.50Q695,400 690.50,397.50Q686,395 682.50,394.50Q679,394 674.50,395.50Z M627.50,308.50Q623,304 616.00,301.00Q609,298 593.00,297.50Q577,297 559.50,300.50Q542,304 525.00,309.50Q508,315 497.00,319.50Q486,324 465.00,335.00Q444,346 432.00,355.00Q420,364 410.50,375.00Q401,386 398.00,393.00Q395,400 394.50,406.50Q394,413 396.50,420.00Q399,427 403.50,432.50Q408,438 415.00,443.00Q422,448 432.00,453.00Q442,458 488.50,475.50Q535,493 548.50,499.50Q562,506 571.50,512.00Q581,518 591.00,527.50Q601,537 604.00,541.50Q607,546 610.50,556.00Q614,566 614.00,575.00Q614,584 612.00,593.00Q610,602 608.00,605.50Q606,609 582.00,619.50Q558,630 523.00,649.00Q488,668 454.50,689.00Q421,710 392.00,732.00Q363,754 350.50,767.00Q338,780 333.50,787.50Q329,795 328.00,802.50Q327,810 328.00,812.50Q329,815 332.50,818.00Q336,821 339.00,822.00Q342,823 351.00,823.00Q360,823 375.00,819.50Q390,816 408.00,808.50Q426,801 453.00,785.00Q480,769 502.50,751.50Q525,734 544.00,715.00Q563,696 578.50,675.50Q594,655 602.00,640.00Q610,625 612.00,619.00Q614,613 615.50,611.50Q617,610 633.50,603.50Q650,597 665.00,593.00Q680,589 694.00,588.50Q708,588 715.00,589.50Q722,591 729.00,594.00Q736,597 743.50,602.50Q751,608 756.00,613.00Q761,618 768.50,628.00Q776,638 801.00,682.50Q826,727 814.00,702.50Q802,678 793.00,662.00Q784,646 771.50,628.50Q759,611 750.50,603.50Q742,596 736.00,592.50Q730,589 722.00,586.50Q714,584 699.50,583.50Q685,583 668.00,587.00Q651,591 635.00,597.00Q619,603 618.50,601.50Q618,600 620.00,589.00Q622,578 620.50,567.50Q619,557 613.00,545.00Q607,533 599.00,524.50Q591,516 578.50,507.50Q566,499 551.00,491.50Q536,484 486.00,465.00Q436,446 427.50,441.00Q419,436 413.00,430.00Q407,424 405.50,421.00Q404,418 403.50,410.00Q403,402 405.00,397.00Q407,392 411.00,386.50Q415,381 428.50,369.00Q442,357 457.50,347.50Q473,338 487.50,331.00Q502,324 521.00,317.00Q540,310 562.50,305.50Q585,301 595.00,301.50Q605,302 614.00,305.00Q623,308 627.00,312.00Q631,316 634.50,323.00Q638,330 635.00,321.50Q632,313 627.50,308.50Z M603.00,616.50Q604,617 594.50,634.00Q585,651 572.50,667.50Q560,684 543.00,701.50Q526,719 505.00,736.00Q484,753 458.00,769.50Q432,786 411.50,795.50Q391,805 374.50,809.50Q358,814 349.50,814.00Q341,814 337.50,811.50Q334,809 334.50,803.50Q335,798 341.50,788.00Q348,778 358.50,767.50Q369,757 388.00,742.00Q407,727 429.50,712.00Q452,697 480.50,680.00Q509,663 549.50,642.00Q590,621 596.00,618.50Q602,616 603.00,616.50Z"/>
</g>
</svg>
